<svg xmlns="http://www.w3.org/2000/svg" version="1.1" xmlns:xlink="http://www.w3.org/1999/xlink" width="50" height="50" x="0" y="0" viewBox="0 0 512 512" style="enable-background:new 0 0 512 512" xml:space="preserve"><defs><linearGradient id="a" x1="0" x2="512" y1="-21110" y2="-21110" gradientTransform="matrix(1 0 0 -1 0 -20854)" gradientUnits="userSpaceOnUse"><stop offset="0" stop-color="#00f1ff"></stop><stop offset=".231" stop-color="#00d8ff"></stop><stop offset=".514" stop-color="#00c0ff"></stop><stop offset=".777" stop-color="#00b2ff"></stop><stop offset="1" stop-color="#00adff"></stop></linearGradient></defs><g><linearGradient id="a" x1="0" x2="512" y1="-21110" y2="-21110" gradientTransform="matrix(1 0 0 -1 0 -20854)" gradientUnits="userSpaceOnUse"><stop offset="0" stop-color="#00f1ff"></stop><stop offset=".231" stop-color="#00d8ff"></stop><stop offset=".514" stop-color="#00c0ff"></stop><stop offset=".777" stop-color="#00b2ff"></stop><stop offset="1" stop-color="#00adff"></stop></linearGradient><path fill="url(&quot;#a&quot;)" d="M512 256c0 141.387-114.613 256-256 256S0 397.387 0 256 114.613 0 256 0s256 114.613 256 256zm0 0" opacity="1" data-original="url(#a)"></path><g fill="#FFFFFF"><path d="M328.59 428.5H185.41c-55.64 0-100.91-45.27-100.91-100.91V184.41c0-55.64 45.27-100.91 100.91-100.91h143.18c55.644 0 100.91 45.27 100.91 100.91v129.652c0 8.282-6.715 15-15 15s-15-6.718-15-15V184.41c0-39.101-31.809-70.91-70.91-70.91H185.41c-39.101 0-70.91 31.809-70.91 70.91v143.18c0 39.101 31.809 70.91 70.91 70.91h143.18c22.383 0 42.984-10.242 56.535-28.102 5.008-6.601 14.414-7.89 21.016-2.886 6.601 5.008 7.89 14.418 2.886 21.02-19.273 25.402-48.59 39.968-80.437 39.968zm0 0" fill="#FFFFFF" opacity="1" data-original="#ffffff"></path><path d="M257 349.75c-51.695 0-93.75-42.055-93.75-93.75s42.055-93.75 93.75-93.75 93.75 42.055 93.75 93.75-42.055 93.75-93.75 93.75zm0-157.5c-35.152 0-63.75 28.598-63.75 63.75s28.598 63.75 63.75 63.75 63.75-28.598 63.75-63.75-28.598-63.75-63.75-63.75zM363.777 162.566c0 7.371-5.972 13.348-13.343 13.348s-13.348-5.976-13.348-13.348 5.977-13.343 13.348-13.343 13.343 5.972 13.343 13.343zm0 0" fill="#FFFFFF" opacity="1" data-original="#ffffff"></path></g></g></svg>