<svg xmlns="http://www.w3.org/2000/svg" version="1.1" xmlns:xlink="http://www.w3.org/1999/xlink" width="50" height="50" x="0" y="0" viewBox="0 0 512 512" style="enable-background:new 0 0 512 512" xml:space="preserve"><g><path fill="#009AE5" d="M512 256c0 141.387-114.613 256-256 256S0 397.387 0 256 114.613 0 256 0s256 114.613 256 256zm0 0" opacity="1" data-original="#009ae5"></path><path fill="#0070B4" d="M506.047 311.05 392.602 198.286c-3.559-3.894-7.747-7.297-12.543-10.164-8.239-4.914-19.223-7.402-32.649-7.402-18.035 0-34.215 3.383-48.09 10.062-4.734 2.278-9.12 4.903-13.152 7.856l-16.664-14.028h-20.477l-76.742-76.703c-6.715-7.41-16.406-12.074-27.172-12.074h-.418c-20.234 0-36.695 16.461-36.695 36.695 0 9.766 3.84 18.649 10.086 25.227l26.84 26.851h-32.598v207.157l119.055 119.054A258.952 258.952 0 0 0 256 512c122.484 0 224.86-86.027 250.047-200.95zm0 0" opacity="1" data-original="#0070b4"></path><g fill="#FFFFFF"><path d="M145.113 95.832h-.418c-20.234 0-36.695 16.461-36.695 36.695s16.46 36.696 36.695 36.696h.418c20.235 0 36.696-16.461 36.696-36.696s-16.461-36.695-36.696-36.695zM112.324 184.605h65.156v207.153h-65.156zM408.176 232.91c-1.45-9.215-4.453-17.824-8.934-25.594-4.515-7.832-10.972-14.289-19.183-19.195-8.239-4.914-19.223-7.402-32.649-7.402-18.035 0-34.215 3.383-48.09 10.062-12.37 5.95-22.383 14.246-29.816 24.692v-30.868h-58.93v207.157h65.153V273.453a53.318 53.318 0 0 1 7.304-13.781c3.14-4.274 6.778-8.04 10.813-11.192 4.02-3.144 8.222-5.628 12.496-7.386 4.219-1.735 8.48-2.617 12.672-2.617 7.914 0 14.101 2.82 18.918 8.617 4.808 5.804 7.25 15.375 7.25 28.445v116.223h65.152V259.59c0-8.559-.723-17.535-2.156-26.68zm0 0" fill="#FFFFFF" opacity="1" data-original="#ffffff"></path></g><path fill="#FFF5CB" d="M410.328 259.59v132.172H345.18V275.539c0-13.07-2.442-22.64-7.25-28.437-4.82-5.801-11.008-8.622-18.918-8.622-4.192 0-8.453.88-12.672 2.61-4.27 1.762-8.48 4.25-12.5 7.39-4.031 3.149-7.668 6.918-10.809 11.192a53.163 53.163 0 0 0-7.3 13.777v118.313H256V184.609h13.5v30.86c7.441-10.438 17.45-18.739 29.82-24.688 13.871-6.68 30.051-10.062 48.09-10.062 13.43 0 24.41 2.492 32.649 7.402 8.21 4.91 14.671 11.367 19.18 19.2 4.48 7.769 7.491 16.378 8.94 25.59 1.43 9.14 2.15 18.12 2.15 26.679zm0 0" opacity="1" data-original="#fff5cb"></path></g></svg>